<svg width="36" height="36" viewBox="0 0 36 36" fill="none" xmlns="http://www.w3.org/2000/svg">
<path d="M27.4647 8.53516H8.53534V27.4646H27.4647V8.53516Z" fill="white"/>
<path d="M27.4647 27.4648H8.53534V36.0001H27.4647V27.4648Z" fill="#34A853"/>
<path d="M27.4647 0H2.8451C2.09221 0.00542402 1.37169 0.306917 0.839305 0.839305C0.306917 1.37169 0.00542402 2.09221 0 2.8451V27.4647H8.5353V8.5353H27.4647V0Z" fill="#4285F4"/>
<path d="M0 27.4648V33.155C0.00542402 33.9079 0.306917 34.6284 0.839305 35.1608C1.37169 35.6932 2.09221 35.9947 2.8451 36.0001H8.5353V27.4648H0Z" fill="#188038"/>
<path d="M35.9999 8.53516H27.4646V27.4646H35.9999V8.53516Z" fill="#FBBC04"/>
<path d="M35.9999 8.5353V2.8451C35.9945 2.09221 35.693 1.37169 35.1606 0.839305C34.6282 0.306917 33.9077 0.00542402 33.1548 0H27.4646V8.5353H35.9999Z" fill="#1967D2"/>
<path d="M27.4646 36.0001L35.9999 27.4648H27.4646V36.0001Z" fill="#EA4335"/>
<path d="M20.6805 16.304L19.7754 15.0226L22.9964 12.6953H24.2187V23.6505H22.4672V14.935L20.6805 16.304Z" fill="#2A83F8"/>
<path d="M16.6526 17.8893C17.0533 17.6194 17.3828 17.2565 17.6128 16.8316C17.8428 16.4066 17.9665 15.9323 17.9733 15.4492C17.9733 13.7459 16.4559 12.3689 14.582 12.3689C13.8343 12.3449 13.1004 12.5734 12.4985 13.0176C11.8966 13.4617 11.4619 14.0957 11.2644 14.8171L12.7676 15.4175C12.8479 15.0309 13.0622 14.685 13.3726 14.441C13.6831 14.1969 14.0697 14.0704 14.4644 14.0836C14.6811 14.0629 14.8997 14.0876 15.1063 14.156C15.313 14.2244 15.5032 14.335 15.6648 14.4809C15.8264 14.6267 15.9559 14.8046 16.045 15.0031C16.1342 15.2017 16.1811 15.4167 16.1828 15.6343C16.1844 15.852 16.1408 16.0676 16.0546 16.2675C15.9685 16.4674 15.8417 16.6472 15.6823 16.7955C15.523 16.9438 15.3345 17.0573 15.1289 17.1288C14.9233 17.2003 14.7051 17.2283 14.4881 17.211V17.2129H14.4669L14.4644 17.2132L14.4607 17.2129H13.5615V18.6836H14.5882L14.5971 18.683C14.8444 18.66 15.0937 18.6889 15.3291 18.7678C15.5646 18.8467 15.781 18.9738 15.9645 19.1411C16.148 19.3084 16.2946 19.5121 16.3949 19.7392C16.4952 19.9664 16.547 20.2119 16.547 20.4602C16.547 20.7085 16.4952 20.9541 16.3949 21.1812C16.2946 21.4084 16.148 21.6121 15.9645 21.7794C15.781 21.9466 15.5646 22.0738 15.3291 22.1527C15.0937 22.2315 14.8444 22.2604 14.5971 22.2375C14.3155 22.2405 14.0364 22.1849 13.7774 22.0743C13.5184 21.9637 13.2853 21.8005 13.0927 21.595C12.9662 21.4552 12.8632 21.2958 12.7877 21.1231L12.5231 20.4784L10.9365 21.0918C11.1717 22.7344 12.7156 24.0052 14.582 24.0052C16.6153 24.0052 18.2616 22.503 18.2616 20.6556C18.2525 20.0954 18.0997 19.5469 17.818 19.0626C17.5363 18.5782 17.135 18.1743 16.6526 17.8893Z" fill="#2A83F8"/>
</svg>
