<svg width="36" height="36" viewBox="0 0 36 36" fill="none" xmlns="http://www.w3.org/2000/svg">
<path d="M24.2125 23.3445C23.0695 24.3589 21.6421 25.6211 19.0539 25.6211H17.5063C15.6334 25.6211 13.9299 24.9403 12.7106 23.7064C11.5195 22.5006 10.8639 20.8505 10.8639 19.0592V16.9416C10.8639 15.1503 11.5195 13.5001 12.7106 12.2944C13.9299 11.0605 15.6334 10.3808 17.5063 10.3808H19.0539C21.6452 10.3808 23.0695 11.6419 24.2125 12.6563C25.3994 13.702 26.4231 14.6159 29.1535 14.6159C29.5699 14.6158 29.9857 14.5826 30.3969 14.5166L30.3874 14.4925C30.2239 14.0864 30.0321 13.6922 29.8134 13.313L27.9886 10.1518C27.1657 8.72668 25.9822 7.54331 24.557 6.72059C23.1318 5.89787 21.5152 5.46478 19.8696 5.46484H16.219C14.5734 5.46478 12.9568 5.89787 11.5316 6.72059C10.1064 7.54331 8.92293 8.72668 8.10004 10.1518L6.27526 13.313C5.45265 14.7382 5.01959 16.3548 5.01959 18.0004C5.01959 19.646 5.45265 21.2626 6.27526 22.6878L8.10004 25.849C8.92293 27.2741 10.1064 28.4575 11.5316 29.2802C12.9568 30.1029 14.5734 30.536 16.219 30.536H19.8696C21.5152 30.536 23.1318 30.1029 24.557 29.2802C25.9822 28.4575 27.1657 27.2741 27.9886 25.849L29.8134 22.6931C30.0321 22.3138 30.2239 21.9196 30.3874 21.5135L30.3969 21.4905C29.9859 21.4222 29.5701 21.3872 29.1535 21.3859C26.4231 21.3859 25.3994 22.2946 24.2125 23.3456" fill="#006BFF"/>
<path d="M19.054 12.2988H17.5063C14.6557 12.2988 12.7828 14.3348 12.7828 16.9408V19.0584C12.7828 21.6643 14.6557 23.7003 17.5063 23.7003H19.054C23.2075 23.7003 22.8813 19.4651 29.1535 19.4651C29.7478 19.4645 30.3408 19.5191 30.9249 19.6283C31.1153 18.5508 31.1153 17.4483 30.9249 16.3709C30.3407 16.4795 29.7477 16.5341 29.1535 16.534C22.8792 16.534 23.2075 12.2988 19.054 12.2988Z" fill="#006BFF"/>
<path d="M34.5285 21.1764C33.4604 20.3941 32.2286 19.8645 30.926 19.6277C30.926 19.6392 30.926 19.6486 30.926 19.659C30.8139 20.2834 30.6387 20.8948 30.4032 21.4838C31.4792 21.6505 32.5001 22.0709 33.3814 22.7104C33.3814 22.7188 33.3761 22.7293 33.373 22.7387C32.2387 26.4114 29.8247 29.5555 26.5695 31.5998C23.3142 33.6441 19.4337 34.4529 15.6328 33.8793C11.8319 33.3058 8.36281 31.3879 5.85572 28.4741C3.34862 25.5603 1.96985 21.8439 1.96985 18C1.96985 14.1561 3.34862 10.4397 5.85572 7.52587C8.36281 4.61208 11.8319 2.69421 15.6328 2.12067C19.4337 1.54712 23.3142 2.35594 26.5695 4.40021C29.8247 6.44447 32.2387 9.58856 33.373 13.2613C33.373 13.2707 33.3782 13.2812 33.3814 13.2896C32.5002 13.9292 31.4792 14.3493 30.4032 14.5151C30.6384 15.105 30.8136 15.717 30.926 16.342C30.9254 16.3518 30.9254 16.3615 30.926 16.3713C32.2285 16.1348 33.4604 15.6056 34.5285 14.8236C35.5554 14.0634 35.3567 13.2049 35.2009 12.6966C33.9313 8.57871 31.2265 5.05291 27.578 2.75993C23.9295 0.466938 19.5795 -0.441065 15.3184 0.200914C11.0572 0.842893 7.16782 2.99225 4.35688 6.25841C1.54593 9.52458 0 13.6908 0 18C0 22.3092 1.54593 26.4754 4.35688 29.7416C7.16782 33.0078 11.0572 35.1571 15.3184 35.7991C19.5795 36.4411 23.9295 35.5331 27.578 33.2401C31.2265 30.9471 33.9313 27.4213 35.2009 23.3034C35.3567 22.7951 35.5554 21.9366 34.5285 21.1764Z" fill="#006BFF"/>
<path d="M30.3969 14.5144C29.9859 14.5827 29.5701 14.6177 29.1535 14.619C26.4231 14.619 25.3994 13.7103 24.2135 12.6593C23.0695 11.645 21.6453 10.3828 19.054 10.3828H17.5063C15.6324 10.3828 13.9299 11.0636 12.7106 12.2975C11.5196 13.5032 10.8639 15.1534 10.8639 16.9447V19.0623C10.8639 20.8536 11.5196 22.5037 12.7106 23.7095C13.9299 24.9434 15.6324 25.6231 17.5063 25.6231H19.054C21.6453 25.6231 23.0695 24.362 24.2135 23.3476C25.3994 22.3019 26.4231 21.388 29.1535 21.388C29.5699 21.3881 29.9857 21.4213 30.3969 21.4873C30.6329 20.8984 30.8081 20.287 30.9197 19.6625C30.9203 19.6521 30.9203 19.6416 30.9197 19.6311C30.3355 19.5228 29.7425 19.4686 29.1483 19.4691C22.874 19.4691 23.2023 23.7053 19.0487 23.7053H17.5011C14.6504 23.7053 12.7776 21.6682 12.7776 19.0623V16.9405C12.7776 14.3346 14.6504 12.2986 17.5011 12.2986H19.0487C23.2023 12.2986 22.8761 16.5327 29.1483 16.5327C29.7425 16.5337 30.3356 16.4794 30.9197 16.3706C30.9197 16.3612 30.9197 16.3518 30.9197 16.3413C30.8073 15.7163 30.6321 15.1043 30.3969 14.5144Z" fill="#0AE8F0"/>
<path d="M30.3969 14.5144C29.9859 14.5827 29.5701 14.6177 29.1535 14.619C26.4231 14.619 25.3994 13.7103 24.2135 12.6593C23.0695 11.645 21.6453 10.3828 19.054 10.3828H17.5063C15.6324 10.3828 13.9299 11.0636 12.7106 12.2975C11.5196 13.5032 10.8639 15.1534 10.8639 16.9447V19.0623C10.8639 20.8536 11.5196 22.5037 12.7106 23.7095C13.9299 24.9434 15.6324 25.6231 17.5063 25.6231H19.054C21.6453 25.6231 23.0695 24.362 24.2135 23.3476C25.3994 22.3019 26.4231 21.388 29.1535 21.388C29.5699 21.3881 29.9857 21.4213 30.3969 21.4873C30.6329 20.8984 30.8081 20.287 30.9197 19.6625C30.9203 19.6521 30.9203 19.6416 30.9197 19.6311C30.3355 19.5228 29.7425 19.4686 29.1483 19.4691C22.874 19.4691 23.2023 23.7053 19.0487 23.7053H17.5011C14.6504 23.7053 12.7776 21.6682 12.7776 19.0623V16.9405C12.7776 14.3346 14.6504 12.2986 17.5011 12.2986H19.0487C23.2023 12.2986 22.8761 16.5327 29.1483 16.5327C29.7425 16.5337 30.3356 16.4794 30.9197 16.3706C30.9197 16.3612 30.9197 16.3518 30.9197 16.3413C30.8073 15.7163 30.6321 15.1043 30.3969 14.5144Z" fill="#0AE8F0"/>
</svg>
