<svg id="Layer_1" data-name="Layer 1" xmlns="http://www.w3.org/2000/svg" fill="#ffffff" viewBox="0 0 24 24"><path d="M21,10.22v5.55a2.6,2.6,0,0,1-2.65,2.66c-1.36,0-2.72,0-4.08,0a.42.42,0,0,0-.24.09l-4.78,3.6a.69.69,0,0,1-.61.14.59.59,0,0,1-.49-.65v-3c0-.23,0-.2-.21-.2-.82,0-1.64,0-2.46,0a2.57,2.57,0,0,1-2.41-2A2.9,2.9,0,0,1,3,15.75c0-1.83,0-3.67,0-5.51V8.63C3,7.2,3,5.78,3,4.35A2.54,2.54,0,0,1,4.49,2a2.42,2.42,0,0,1,1.12-.25H18.39A2.58,2.58,0,0,1,21,3.89a2.92,2.92,0,0,1,0,.51V8.8M9.43,20.37l.11-.08,3.71-2.81a1.6,1.6,0,0,1,1-.33c1.38,0,2.77,0,4.16,0a1.24,1.24,0,0,0,1.32-1.32V4.19a1.27,1.27,0,0,0-.4-.87,1.37,1.37,0,0,0-1-.33H5.59a1.24,1.24,0,0,0-1,.43,1.34,1.34,0,0,0-.3.9V15.84a1.9,1.9,0,0,0,.09.53,1.18,1.18,0,0,0,1.14.78c.86,0,1.72,0,2.58,0a1.36,1.36,0,0,1,.76.2,1.2,1.2,0,0,1,.57,1.09c0,.59,0,1.18,0,1.77Z"/><path d="M9.64,12.57h2.52a.62.62,0,0,1,.67.47.63.63,0,0,1-.62.8h-5a1.13,1.13,0,0,1-.36-.06.63.63,0,0,1,.1-1.19l.26,0Z"/><path d="M12,8.71H7.24a.79.79,0,0,1-.64-.23.59.59,0,0,1-.08-.7.69.69,0,0,1,.65-.35h9.57a1.67,1.67,0,0,1,.39.05.58.58,0,0,1,.43.6.61.61,0,0,1-.55.6,1.36,1.36,0,0,1-.29,0Z"/><path d="M10.77,11.28H7.06a.55.55,0,0,1-.5-.23.73.73,0,0,1-.06-.7A.53.53,0,0,1,7,10h7.45a1.06,1.06,0,0,1,.31.05.58.58,0,0,1,.33.6.57.57,0,0,1-.43.6.83.83,0,0,1-.22,0Z"/></svg>