<svg width="24" height="24" viewBox="0 0 24 24" fill="none" xmlns="http://www.w3.org/2000/svg">
<g clip-path="url(#clip0_1523_64594)">
<path d="M23.17 15.3901C23.1768 15.1294 23.1026 14.873 22.9575 14.6563C22.8124 14.4395 22.6036 14.2732 22.36 14.1801C22.2368 14.1207 22.1053 14.0803 21.97 14.0601C21.3708 14.1052 20.7692 14.1052 20.17 14.0601H2.76C2.42708 14.0836 2.09292 14.0836 1.76 14.0601C1.45829 14.1281 1.14217 14.0845 0.870107 13.9374C0.59804 13.7904 0.388419 13.5498 0.28 13.2601C0.28 13.2001 0.28 13.1401 0.16 13.1201H0.07H0V22.7301C0 23.4001 0.16 23.9101 1.19 24.0301H21.94C22.2344 24.0469 22.5251 23.9583 22.76 23.7801C22.8932 23.6659 22.9985 23.5227 23.0678 23.3615C23.1372 23.2003 23.1687 23.0254 23.16 22.8501C23.16 20.3201 23.16 17.8601 23.17 15.3901Z" fill="#3AAA5C"/>
<path d="M1.21997 11.54C1.60467 11.4848 1.99527 11.4848 2.37997 11.54C2.64997 11.54 2.72997 11.46 2.72997 11.19C2.72997 7.95662 2.72997 4.72662 2.72997 1.49995C2.70333 1.30103 2.72205 1.09865 2.78474 0.907991C2.84743 0.717331 2.95245 0.543331 3.09195 0.399029C3.23144 0.254727 3.40178 0.143866 3.59021 0.074753C3.77863 0.00564001 3.98026 -0.0199324 4.17997 -4.8006e-05H16.5C16.66 0.139952 16.63 0.319952 16.63 0.489952C16.63 1.76995 16.63 3.03995 16.63 4.31995C16.6236 4.496 16.6473 4.67186 16.7 4.83995C16.7923 5.08947 16.9631 5.30232 17.1867 5.44656C17.4102 5.5908 17.6746 5.65866 17.94 5.63995H20.43C20.59 5.63995 20.77 5.63995 20.89 5.76995V13.77C20.89 14.2 20.89 14.19 21.34 14.2C21.5578 14.1718 21.779 14.1889 21.99 14.25H2.72997L2.65997 14.18C2.59644 14.0569 2.57202 13.9173 2.58997 13.78V12.15C2.58997 11.76 2.51997 11.7 2.13997 11.69C1.91997 11.69 1.70997 11.69 1.49997 11.69C1.28997 11.69 1.26997 11.68 1.21997 11.54Z" fill="#D8DFE3"/>
<path d="M11.65 16.4302H12.2C12.3958 16.4389 12.5875 16.4903 12.7615 16.5806C12.9355 16.6709 13.0878 16.7981 13.2077 16.9532C13.3276 17.1083 13.4123 17.2877 13.4559 17.4789C13.4994 17.67 13.5008 17.8684 13.46 18.0602C13.4527 18.113 13.4349 18.1637 13.4077 18.2096C13.3805 18.2554 13.3444 18.2953 13.3015 18.327C13.2587 18.3586 13.2099 18.3814 13.1581 18.394C13.1063 18.4066 13.0526 18.4087 13 18.4002C12.8956 18.4002 12.7953 18.3594 12.7206 18.2866C12.6459 18.2137 12.6026 18.1145 12.6 18.0102V17.8402C12.6 17.4702 12.43 17.3102 12.05 17.3002C11.67 17.2902 11.51 17.3002 11.24 17.3002C11.1237 17.2823 11.005 17.3097 10.9083 17.3766C10.8116 17.4436 10.7442 17.5451 10.72 17.6602C10.6713 17.7982 10.6786 17.9497 10.7403 18.0824C10.8019 18.2151 10.9131 18.3184 11.05 18.3702C11.58 18.5902 12.12 18.7802 12.65 19.0102C12.8444 19.1031 13.0162 19.2374 13.1534 19.4037C13.2905 19.5699 13.3897 19.7641 13.444 19.9727C13.4983 20.1813 13.5064 20.3992 13.4677 20.6112C13.429 20.8232 13.3444 21.0242 13.22 21.2002C13.1079 21.3621 12.9586 21.4948 12.7845 21.587C12.6105 21.6793 12.4169 21.7283 12.22 21.7302C11.84 21.7302 11.46 21.7302 11.08 21.7302C10.8851 21.7212 10.6946 21.67 10.5214 21.5803C10.3482 21.4906 10.1965 21.3644 10.0768 21.2104C9.95703 21.0565 9.87206 20.8784 9.82773 20.6885C9.7834 20.4985 9.78075 20.3012 9.81997 20.1102C9.83686 20.0122 9.88877 19.9237 9.96603 19.8612C10.0433 19.7987 10.1406 19.7663 10.24 19.7702C10.3375 19.7582 10.436 19.7834 10.5157 19.8409C10.5955 19.8984 10.6505 19.9838 10.67 20.0802C10.6803 20.1799 10.6803 20.2804 10.67 20.3802C10.67 20.7002 10.84 20.8502 11.16 20.8602H12.05C12.1681 20.8696 12.2856 20.835 12.3798 20.763C12.4739 20.691 12.5381 20.5867 12.56 20.4702C12.6026 20.3414 12.5942 20.2012 12.5365 20.0784C12.4788 19.9556 12.3763 19.8596 12.25 19.8102C11.77 19.6002 11.25 19.4102 10.79 19.2202C10.4483 19.1116 10.1581 18.882 9.97396 18.5744C9.7898 18.2668 9.72436 17.9026 9.78997 17.5502C9.83358 17.2499 9.98005 16.9741 10.2044 16.7699C10.4287 16.5656 10.717 16.4456 11.02 16.4302H11.65Z" fill="#D8DFE3"/>
<path d="M4.73995 19.0998C4.71988 18.8402 4.71988 18.5794 4.73995 18.3198C4.81081 17.7915 5.07277 17.3074 5.4763 16.9592C5.87983 16.6109 6.39697 16.4226 6.92995 16.4298C7.37731 16.3716 7.83119 16.4664 8.21787 16.6988C8.60455 16.9312 8.90131 17.2875 9.05995 17.7098C9.18995 18.0098 9.11995 18.2698 8.87995 18.3698C8.63995 18.4698 8.40995 18.3698 8.25995 18.0698C8.12901 17.7637 7.88726 17.5184 7.58314 17.3831C7.27903 17.2477 6.93499 17.2322 6.61995 17.3398C6.32432 17.4171 6.06399 17.5931 5.88211 17.8386C5.70023 18.0841 5.60773 18.3844 5.61995 18.6898C5.61995 18.9798 5.61995 19.2798 5.61995 19.5698C5.6228 19.8611 5.72267 20.1431 5.90378 20.3713C6.08489 20.5995 6.33689 20.7608 6.61995 20.8298C6.92756 20.9343 7.26291 20.9217 7.56181 20.7944C7.86071 20.667 8.10216 20.434 8.23995 20.1398C8.2628 20.091 8.28956 20.0442 8.31995 19.9998C8.37506 19.901 8.46534 19.8266 8.57282 19.7914C8.68029 19.7562 8.79709 19.7628 8.89995 19.8098C9.00078 19.8576 9.07907 19.9428 9.11826 20.0473C9.15744 20.1518 9.15446 20.2674 9.10995 20.3698C9.00105 20.697 8.80939 20.9905 8.55357 21.2218C8.29775 21.4531 7.98647 21.6143 7.64995 21.6898C7.36105 21.7757 7.05803 21.8037 6.75827 21.7723C6.45852 21.7408 6.16792 21.6505 5.90314 21.5065C5.63836 21.3625 5.40461 21.1676 5.2153 20.9331C5.02599 20.6986 4.88484 20.429 4.79995 20.1398C4.71945 19.7993 4.69915 19.4473 4.73995 19.0998Z" fill="#D8DFE3"/>
<path d="M16.24 20.0702C16.3478 19.899 16.4319 19.714 16.49 19.5202L17.57 16.8202C17.64 16.6502 17.72 16.4902 17.91 16.4502C17.9849 16.4277 18.0645 16.426 18.1403 16.4454C18.2161 16.4648 18.2851 16.5045 18.34 16.5602C18.406 16.6279 18.4484 16.715 18.461 16.8086C18.4736 16.9023 18.4557 16.9975 18.41 17.0802C18.18 17.6802 17.94 18.2802 17.7 18.8802C17.37 19.7002 17.04 20.5102 16.7 21.3302C16.61 21.5502 16.51 21.7302 16.24 21.7402C15.97 21.7502 15.85 21.5502 15.77 21.3402L14.09 17.1402C14.0299 17.0394 14.0079 16.9204 14.0281 16.8048C14.0482 16.6892 14.1093 16.5846 14.2 16.5102C14.45 16.3202 14.76 16.4402 14.9 16.7902C15.27 17.7002 15.63 18.6102 15.99 19.5202C16.08 19.7002 16.16 19.8702 16.24 20.0702Z" fill="#D8DFE3"/>
<path d="M1.21997 11.54C1.64997 11.54 2.06997 11.54 2.49997 11.54C2.64997 11.54 2.71997 11.54 2.71997 11.75C2.71997 12.56 2.71997 13.36 2.71997 14.16C2.38746 14.1931 2.05249 14.1931 1.71997 14.16C1.36209 14.2377 0.988026 14.1709 0.67907 13.9743C0.370114 13.7777 0.151228 13.4671 0.0699739 13.11C0.0415613 12.9313 0.0488293 12.7488 0.0913581 12.5729C0.133887 12.397 0.210834 12.2313 0.317756 12.0854C0.424679 11.9394 0.559458 11.816 0.714313 11.7224C0.869167 11.6288 1.04103 11.5669 1.21997 11.54Z" fill="#1A8144"/>
<path d="M1.67993 14.1899H2.67993C2.34785 14.2307 2.01202 14.2307 1.67993 14.1899Z" fill="#67A26A"/>
<path d="M20.89 5.78C19.89 5.78 18.95 5.78 17.98 5.78C17.7806 5.7963 17.5801 5.76936 17.392 5.70103C17.204 5.6327 17.033 5.52458 16.8905 5.38407C16.7481 5.24356 16.6377 5.07397 16.5669 4.88687C16.496 4.69978 16.4664 4.4996 16.48 4.3C16.48 2.87 16.48 1.44 16.48 0C16.5581 0.00595588 16.6336 0.0309416 16.6999 0.0727762C16.7661 0.114611 16.8211 0.172023 16.86 0.24L20.77 5.45C20.8127 5.49309 20.8455 5.54489 20.8662 5.60186C20.8869 5.65882 20.895 5.71959 20.89 5.78Z" fill="#AFBDC6"/>
<path d="M11.8201 8H17.0001C17.0535 7.99998 17.1063 8.01065 17.1555 8.03138C17.2047 8.0521 17.2492 8.08246 17.2865 8.12067C17.3238 8.15888 17.353 8.20416 17.3725 8.25385C17.392 8.30354 17.4014 8.35664 17.4001 8.41C17.4093 8.51383 17.3797 8.61739 17.3168 8.70056C17.254 8.78373 17.1625 8.84056 17.0601 8.86C16.9704 8.87033 16.8798 8.87033 16.7901 8.86H6.87007C6.77109 8.8802 6.66905 8.8802 6.57007 8.86C6.47108 8.82978 6.38674 8.76408 6.33322 8.67549C6.2797 8.58691 6.26077 8.48168 6.28007 8.38C6.28007 8.27922 6.32011 8.18256 6.39137 8.1113C6.46263 8.04004 6.55929 8 6.66007 8H11.8201Z" fill="#3AAA5C"/>
<path d="M11.7999 11.5499H6.79995C6.45995 11.5499 6.25995 11.4099 6.23995 11.1499C6.22575 11.0373 6.25669 10.9236 6.32601 10.8337C6.39533 10.7437 6.4974 10.6849 6.60995 10.6699H16.8299C17.1599 10.6699 17.3599 10.8399 17.3699 11.0999C17.3799 11.3599 17.1599 11.5599 16.8199 11.5599L11.7999 11.5499Z" fill="#3AAA5C"/>
<path d="M9.57995 6.21977H6.77995C6.67744 6.23422 6.5731 6.21207 6.48531 6.1572C6.39751 6.10233 6.33188 6.01825 6.29995 5.91977C6.26321 5.83789 6.25507 5.74605 6.27684 5.65899C6.2986 5.57193 6.34901 5.49472 6.41995 5.43977C6.46411 5.39867 6.51608 5.36687 6.57277 5.34625C6.62946 5.32564 6.68971 5.31663 6.74995 5.31977H12.44C12.5026 5.31257 12.5661 5.31894 12.6262 5.33845C12.6862 5.35795 12.7413 5.39014 12.7878 5.43282C12.8342 5.4755 12.871 5.52768 12.8955 5.58582C12.9201 5.64396 12.9318 5.70669 12.93 5.76977C12.9263 5.83337 12.9097 5.89556 12.8812 5.95255C12.8527 6.00955 12.813 6.06016 12.7643 6.10131C12.7157 6.14246 12.6592 6.1733 12.5983 6.19194C12.5374 6.21059 12.4733 6.21665 12.41 6.20977L9.57995 6.21977Z" fill="#3AAA5C"/>
</g>
<defs>
<clipPath id="clip0_1523_64594">
<rect width="23.17" height="24" fill="white"/>
</clipPath>
</defs>
</svg>
