<svg width="62" height="48" viewBox="0 0 62 48" fill="none" xmlns="http://www.w3.org/2000/svg">
<path d="M31.2139 36.7096C40.2124 36.7096 47.5072 29.4223 47.5072 20.4329C47.5072 11.4436 40.2124 4.15625 31.2139 4.15625C22.2153 4.15625 14.9205 11.4436 14.9205 20.4329C14.9205 29.4223 22.2153 36.7096 31.2139 36.7096Z" fill="#DDE3FF"/>
<path d="M53.4462 23.0419V21.1514C53.4462 20.7909 53.3028 20.4451 53.0476 20.1902C52.7924 19.9353 52.4463 19.7921 52.0855 19.7921H47.2827C46.9218 19.7921 46.5757 19.6489 46.3205 19.3939C46.0653 19.139 45.922 18.7933 45.922 18.4328V16.5422C45.922 16.1817 46.0653 15.836 46.3205 15.581C46.5757 15.3261 46.9218 15.1829 47.2827 15.1829H47.4343C47.613 15.1829 47.7899 15.1477 47.955 15.0794C48.1201 15.0111 48.2701 14.911 48.3965 14.7848C48.5228 14.6586 48.623 14.5087 48.6914 14.3438C48.7598 14.1789 48.795 14.0021 48.795 13.8236V11.9331C48.795 11.7545 48.7598 11.5778 48.6914 11.4129C48.623 11.2479 48.5228 11.0981 48.3965 10.9719C48.2701 10.8457 48.1201 10.7455 47.955 10.6772C47.7899 10.6089 47.613 10.5737 47.4343 10.5737L15.8437 10.5737C15.4828 10.5737 15.1367 10.7169 14.8816 10.9719C14.6264 11.2268 14.483 11.5725 14.483 11.933V13.8236C14.483 14.0021 14.5182 14.1789 14.5866 14.3438C14.655 14.5087 14.7552 14.6585 14.8815 14.7848C15.0079 14.911 15.1579 15.0111 15.323 15.0794C15.4881 15.1477 15.665 15.1829 15.8437 15.1829C16.2046 15.1829 16.5507 15.3261 16.8059 15.581C17.0611 15.8359 17.2044 16.1817 17.2044 16.5422V18.4328C17.2044 18.6113 17.1692 18.788 17.1008 18.9529C17.0325 19.1179 16.9322 19.2677 16.8059 19.3939C16.6795 19.5202 16.5295 19.6203 16.3644 19.6886C16.1993 19.7569 16.0224 19.7921 15.8437 19.7921H10.5818C10.2209 19.7921 9.87478 19.9353 9.6196 20.1902C9.36442 20.4451 9.22106 20.7909 9.22106 21.1514V23.0419C9.22106 23.4024 9.36442 23.7482 9.6196 24.0031C9.87478 24.258 10.2209 24.4012 10.5818 24.4012H12.6465C13.0073 24.4012 13.3534 24.5444 13.6086 24.7994C13.8638 25.0543 14.0072 25.4 14.0072 25.7605V27.6511C14.0072 28.0116 13.8638 28.3573 13.6086 28.6123C13.3534 28.8672 13.0073 29.0104 12.6465 29.0104H12.6415C12.4628 29.0104 12.2858 29.0456 12.1208 29.1139C11.9557 29.1822 11.8057 29.2823 11.6793 29.4085C11.553 29.5347 11.4527 29.6846 11.3844 29.8495C11.316 30.0144 11.2808 30.1912 11.2808 30.3697V32.2602C11.2808 32.6208 11.4241 32.9665 11.6793 33.2214C11.9345 33.4763 12.2806 33.6196 12.6415 33.6196H12.9402C13.3011 33.6196 13.6472 33.7628 13.9024 34.0177C14.1575 34.2726 14.3009 34.6183 14.3009 34.9789V36.8694C14.3009 37.0479 14.2657 37.2247 14.1973 37.3896C14.1289 37.5545 14.0287 37.7044 13.9024 37.8306C13.776 37.9568 13.626 38.0569 13.4609 38.1253C13.2958 38.1936 13.1189 38.2287 12.9402 38.2287H9.91459C9.7359 38.2287 9.55896 38.2639 9.39388 38.3322C9.22879 38.4005 9.07879 38.5006 8.95243 38.6269C8.82608 38.7531 8.72585 38.9029 8.65747 39.0679C8.58909 39.2328 8.55389 39.4095 8.55389 39.588V41.4786C8.55389 41.8391 8.69725 42.1848 8.95243 42.4398C9.20761 42.6947 9.55371 42.8379 9.91459 42.8379L48.1648 42.8379C48.3435 42.8379 48.5204 42.8027 48.6855 42.7344C48.8506 42.6661 49.0006 42.566 49.127 42.4398C49.2533 42.3135 49.3536 42.1637 49.4219 41.9988C49.4903 41.8339 49.5255 41.6571 49.5255 41.4786V39.588C49.5255 39.4095 49.4903 39.2328 49.4219 39.0679C49.3536 38.9029 49.2533 38.7531 49.127 38.6269C49.0006 38.5007 48.8506 38.4005 48.6855 38.3322C48.5204 38.2639 48.3435 38.2287 48.1648 38.2287H46.985C46.8063 38.2287 46.6294 38.1936 46.4643 38.1253C46.2992 38.057 46.1492 37.9568 46.0229 37.8306C45.8965 37.7044 45.7963 37.5545 45.7279 37.3896C45.6595 37.2247 45.6243 37.0479 45.6243 36.8694V34.9789C45.6243 34.8004 45.6595 34.6236 45.7279 34.4587C45.7963 34.2938 45.8965 34.1439 46.0229 34.0177C46.1492 33.8915 46.2992 33.7913 46.4643 33.723C46.6294 33.6547 46.8063 33.6196 46.985 33.6196H49.7669C50.1277 33.6196 50.4738 33.4763 50.729 33.2214C50.9842 32.9665 51.1276 32.6208 51.1276 32.2603V30.3697C51.1276 30.0092 50.9842 29.6635 50.729 29.4085C50.4738 29.1536 50.1277 29.0104 49.7669 29.0104H48.923C48.5621 29.0104 48.216 28.8672 47.9608 28.6123C47.7056 28.3574 47.5623 28.0116 47.5623 27.6511V25.7605C47.5623 25.4 47.7056 25.0543 47.9608 24.7994C48.216 24.5445 48.5621 24.4012 48.923 24.4012H52.0855C52.2642 24.4012 52.4411 24.3661 52.6062 24.2978C52.7713 24.2295 52.9213 24.1293 53.0476 24.0031C53.174 23.8769 53.2742 23.727 53.3426 23.5621C53.411 23.3972 53.4462 23.2204 53.4462 23.0419Z" fill="#DDE3FF"/>
<path d="M25.2556 24.4749H28.1011" stroke="#635CFF" stroke-width="3" stroke-miterlimit="10"/>
<path d="M25.2556 25.2942H28.1011" stroke="#635CFF" stroke-width="3" stroke-miterlimit="10"/>
<path d="M25.2556 26.1135H28.1011" stroke="#635CFF" stroke-width="3" stroke-miterlimit="10"/>
<path d="M19.9471 10.3306H22.7927" stroke="#635CFF" stroke-width="3" stroke-miterlimit="10" stroke-linecap="round"/>
<path d="M19.9471 11.1499H22.7927" stroke="#635CFF" stroke-width="3" stroke-miterlimit="10" stroke-linecap="round"/>
<path d="M19.9471 11.9692H22.7927" stroke="#635CFF" stroke-width="3" stroke-miterlimit="10" stroke-linecap="round"/>
<path d="M45.569 23.4727H48.4145" stroke="#635CFF" stroke-width="3" stroke-miterlimit="10" stroke-linecap="round"/>
<path d="M45.569 24.2917H48.4145" stroke="#635CFF" stroke-width="3" stroke-miterlimit="10" stroke-linecap="round"/>
<path d="M45.569 25.1111H48.4145" stroke="#635CFF" stroke-width="3" stroke-miterlimit="10" stroke-linecap="round"/>
<path d="M16.0107 35.8904H18.8561" stroke="#635CFF" stroke-width="3" stroke-miterlimit="10" stroke-linecap="round"/>
<path d="M16.0107 36.7097H18.8561" stroke="#635CFF" stroke-width="3" stroke-miterlimit="10" stroke-linecap="round"/>
<path d="M16.0107 37.5291H18.8561" stroke="#635CFF" stroke-width="3" stroke-miterlimit="10" stroke-linecap="round"/>
<path d="M16.4339 24.6579C17.2331 24.6579 17.881 24.0106 17.881 23.2122C17.881 22.4138 17.2331 21.7666 16.4339 21.7666C15.6347 21.7666 14.9868 22.4138 14.9868 23.2122C14.9868 24.0106 15.6347 24.6579 16.4339 24.6579Z" fill="#635CFF"/>
<path d="M16.7964 21.0394C17.2127 21.0394 17.5501 20.7023 17.5501 20.2864C17.5501 19.8706 17.2127 19.5334 16.7964 19.5334C16.3801 19.5334 16.0426 19.8706 16.0426 20.2864C16.0426 20.7023 16.3801 21.0394 16.7964 21.0394Z" fill="#635CFF"/>
<path d="M19.4493 20.8008C19.6894 20.8008 19.8841 20.6064 19.8841 20.3665C19.8841 20.1266 19.6894 19.9321 19.4493 19.9321C19.2092 19.9321 19.0145 20.1266 19.0145 20.3665C19.0145 20.6064 19.2092 20.8008 19.4493 20.8008Z" fill="#635CFF"/>
<path d="M19.7074 23.8182C20.2831 23.8182 20.7497 23.352 20.7497 22.7769C20.7497 22.2018 20.2831 21.7356 19.7074 21.7356C19.1317 21.7356 18.665 22.2018 18.665 22.7769C18.665 23.352 19.1317 23.8182 19.7074 23.8182Z" fill="#635CFF"/>
<path d="M44.1957 40.6947C44.9949 40.6947 45.6428 40.0475 45.6428 39.2491C45.6428 38.4507 44.9949 37.8035 44.1957 37.8035C43.3965 37.8035 42.7486 38.4507 42.7486 39.2491C42.7486 40.0475 43.3965 40.6947 44.1957 40.6947Z" fill="#635CFF"/>
<path d="M42.1721 37.8563C42.5884 37.8563 42.9259 37.5192 42.9259 37.1033C42.9259 36.6875 42.5884 36.3503 42.1721 36.3503C41.7558 36.3503 41.4183 36.6875 41.4183 37.1033C41.4183 37.5192 41.7558 37.8563 42.1721 37.8563Z" fill="#635CFF"/>
<path d="M43.9269 35.5481C44.167 35.5481 44.3616 35.3537 44.3616 35.1138C44.3616 34.8739 44.167 34.6794 43.9269 34.6794C43.6867 34.6794 43.4921 34.8739 43.4921 35.1138C43.4921 35.3537 43.6867 35.5481 43.9269 35.5481Z" fill="#635CFF"/>
<path d="M45.9491 37.4947C46.5248 37.4947 46.9915 37.0285 46.9915 36.4534C46.9915 35.8783 46.5248 35.4121 45.9491 35.4121C45.3735 35.4121 44.9068 35.8783 44.9068 36.4534C44.9068 37.0285 45.3735 37.4947 45.9491 37.4947Z" fill="#635CFF"/>
<path d="M42.7483 16.2628C43.5475 16.2628 44.1954 15.6156 44.1954 14.8172C44.1954 14.0188 43.5475 13.3716 42.7483 13.3716C41.949 13.3716 41.3011 14.0188 41.3011 14.8172C41.3011 15.6156 41.949 16.2628 42.7483 16.2628Z" fill="#635CFF"/>
<path d="M40.1393 13.4245C40.5556 13.4245 40.8931 13.0873 40.8931 12.6715C40.8931 12.2556 40.5556 11.9185 40.1393 11.9185C39.723 11.9185 39.3856 12.2556 39.3856 12.6715C39.3856 13.0873 39.723 13.4245 40.1393 13.4245Z" fill="#635CFF"/>
<path d="M42.9886 12.9595C43.5643 12.9595 44.031 12.4933 44.031 11.9182C44.031 11.3432 43.5643 10.877 42.9886 10.877C42.413 10.877 41.9463 11.3432 41.9463 11.9182C41.9463 12.4933 42.413 12.9595 42.9886 12.9595Z" fill="#635CFF"/>
<path d="M26.5124 34.5416C27.3116 34.5416 27.9595 33.8944 27.9595 33.096C27.9595 32.2976 27.3116 31.6504 26.5124 31.6504C25.7131 31.6504 25.0652 32.2976 25.0652 33.096C25.0652 33.8944 25.7131 34.5416 26.5124 34.5416Z" fill="#635CFF"/>
<path d="M24.4887 31.7033C24.905 31.7033 25.2425 31.3661 25.2425 30.9503C25.2425 30.5344 24.905 30.1973 24.4887 30.1973C24.0724 30.1973 23.7349 30.5344 23.7349 30.9503C23.7349 31.3661 24.0724 31.7033 24.4887 31.7033Z" fill="#635CFF"/>
<path d="M26.2434 29.3951C26.4835 29.3951 26.6782 29.2006 26.6782 28.9607C26.6782 28.7208 26.4835 28.5264 26.2434 28.5264C26.0033 28.5264 25.8086 28.7208 25.8086 28.9607C25.8086 29.2006 26.0033 29.3951 26.2434 29.3951Z" fill="#635CFF"/>
<path d="M28.2657 31.3416C28.8414 31.3416 29.308 30.8754 29.308 30.3003C29.308 29.7252 28.8414 29.259 28.2657 29.259C27.69 29.259 27.2233 29.7252 27.2233 30.3003C27.2233 30.8754 27.69 31.3416 28.2657 31.3416Z" fill="#635CFF"/>
<path d="M30.0819 14.4262C33.0407 10.2612 34.8776 6.48646 34.1846 5.99522L33.3907 5.4324C32.6978 4.94115 29.7375 7.91941 26.7787 12.0845C23.8199 16.2496 21.9831 20.0242 22.676 20.5155L23.47 21.0783C24.1629 21.5695 27.1232 18.5913 30.0819 14.4262Z" fill="#422AD8"/>
<path d="M29.288 13.8634C32.2468 9.69829 34.0835 5.9236 33.3906 5.43236C32.6977 4.94113 29.7374 7.91936 26.7786 12.0844C23.8199 16.2495 21.9831 20.0242 22.6761 20.5154C23.369 21.0067 26.3293 18.0284 29.288 13.8634Z" fill="#635CFF"/>
<path d="M28.6274 10.7543C29.4506 11.3378 27.026 14.7509 26.2029 14.1674C25.3797 13.5838 25.2552 12.3467 25.9247 11.4042C26.5943 10.4617 27.8043 10.1707 28.6274 10.7543Z" fill="#422AD8"/>
<path d="M22.7927 23.6814L24.9657 42.6714H24.9892C24.9892 43.3188 28.1503 43.8437 32.0497 43.8437C35.949 43.8437 39.1101 43.3188 39.1101 42.6714H39.1337L41.3067 23.6814H22.7927Z" fill="#635CFF"/>
<path d="M32.0496 25.2184C37.1621 25.2184 41.3066 24.5303 41.3066 23.6815C41.3066 22.8326 37.1621 22.1445 32.0496 22.1445C26.9372 22.1445 22.7927 22.8326 22.7927 23.6815C22.7927 24.5303 26.9372 25.2184 32.0496 25.2184Z" fill="#422AD8"/>
<path d="M32.5196 27.9465H32.104C32.0004 27.9465 31.9163 28.0305 31.9163 28.134V41.5531C31.9163 41.6567 32.0004 41.7406 32.104 41.7406H32.5196C32.6232 41.7406 32.7073 41.6567 32.7073 41.5531V28.134C32.7073 28.0305 32.6232 27.9465 32.5196 27.9465Z" fill="#422AD8"/>
<path d="M36.5295 41.759L36.0295 41.69C35.9496 41.6789 35.8894 41.5397 35.8948 41.3789L36.3437 28.1993C36.3492 28.0385 36.4183 27.9172 36.4982 27.9282L36.9982 27.9973C37.078 28.0083 37.1383 28.1475 37.1328 28.3083L36.684 41.4879C36.6785 41.6487 36.6093 41.7701 36.5295 41.759ZM27.8061 41.759L28.3062 41.69C28.386 41.6789 28.4463 41.5397 28.4408 41.3789L27.9919 28.1993C27.9864 28.0385 27.9173 27.9172 27.8375 27.9282L27.3374 27.9973C27.2576 28.0083 27.1973 28.1475 27.2028 28.3083L27.6517 41.4879C27.6571 41.6487 27.7263 41.7701 27.8061 41.759Z" fill="#422AD8"/>
<path d="M36.1144 21.2503L35.4631 23.4562L29.8333 21.7974C29.8034 21.7886 29.7754 21.7739 29.7512 21.7543C29.7269 21.7347 29.7067 21.7105 29.6917 21.6831C29.6768 21.6557 29.6674 21.6256 29.6641 21.5946C29.6608 21.5636 29.6637 21.5322 29.6725 21.5023L32.3072 12.5786C32.3161 12.5486 32.3307 12.5208 32.3504 12.4965C32.37 12.4722 32.3942 12.452 32.4216 12.4371C32.4491 12.4222 32.4792 12.4128 32.5102 12.4095C32.5413 12.4062 32.5727 12.4091 32.6026 12.4179L40.2216 14.6628C40.2515 14.6716 40.2795 14.6863 40.3038 14.7059C40.3281 14.7255 40.3482 14.7497 40.3632 14.7771C40.3781 14.8045 40.3875 14.8346 40.3908 14.8656C40.3941 14.8966 40.3913 14.928 40.3824 14.9579L38.3317 21.9036L36.1144 21.2503Z" fill="#21232B"/>
<path d="M35.4631 23.4561L36.1144 21.2502L38.3316 21.9035L35.4631 23.4561Z" fill="#635CFF"/>
<path d="M32.877 15L38.6016 16.6875" stroke="white" stroke-width="0.5" stroke-miterlimit="10"/>
<path d="M31.486 19.9956L33.6349 20.6287" stroke="white" stroke-width="0.5" stroke-miterlimit="10"/>
<path d="M32.4316 16.6924L38.0843 18.3579" stroke="white" stroke-width="0.5" stroke-miterlimit="10"/>
<path d="M32.1073 17.7908L37.7599 19.4563" stroke="white" stroke-width="0.5" stroke-miterlimit="10"/>
<path d="M31.783 18.8892L37.4356 20.5547" stroke="white" stroke-width="0.5" stroke-miterlimit="10"/>
</svg>
