<svg width="24" height="24" viewBox="0 0 24 24" fill="none" xmlns="http://www.w3.org/2000/svg">
<g clip-path="url(#clip0_1173_7745)">
<path d="M23.0009 1.5H7.00001C6.86872 1.5 6.73871 1.52586 6.61742 1.5761C6.49612 1.62635 6.38591 1.69999 6.29307 1.79282C6.20023 1.88566 6.12659 1.99587 6.07635 2.11717C6.0261 2.23847 6.00024 2.36847 6.00024 2.49977V6.74992L15.0007 9.37539L24.0011 6.75043V2.49977C24.0011 2.36843 23.9753 2.23838 23.925 2.11705C23.8747 1.99572 23.801 1.88549 23.7081 1.79264C23.6152 1.6998 23.505 1.62617 23.3836 1.57596C23.2623 1.52574 23.1322 1.49993 23.0009 1.5Z" fill="#41A5EE"/>
<path d="M24.0011 6.75H6.00024V11.9999L15.0007 14.6254L24.0011 12.0004V6.75Z" fill="#2B7CD3"/>
<path d="M24.0011 12.0005H6.00024V17.2504L15.0007 19.8759L24.0011 17.2509V12.0005Z" fill="#185ABD"/>
<path d="M24.0011 17.25H6.00024V21.5002C6.00024 21.6314 6.0261 21.7615 6.07635 21.8827C6.12659 22.004 6.20023 22.1143 6.29307 22.2071C6.38591 22.2999 6.49612 22.3736 6.61742 22.4238C6.73871 22.4741 6.86872 22.4999 7.00001 22.4999H23.0009C23.1322 22.5 23.2623 22.4742 23.3836 22.424C23.505 22.3738 23.6152 22.3001 23.7081 22.2073C23.801 22.1144 23.8747 22.0042 23.925 21.8829C23.9753 21.7615 24.0011 21.6315 24.0011 21.5002V17.25Z" fill="#103F91"/>
<path opacity="0.1" d="M12.5005 5.25H6.00024V19.5004H12.5005C12.7654 19.4996 13.0192 19.394 13.2066 19.2066C13.3939 19.0193 13.4995 18.7655 13.5003 18.5006V6.24977C13.4995 5.98486 13.3939 5.73104 13.2066 5.54372C13.0192 5.3564 12.7654 5.25081 12.5005 5.25Z" fill="black"/>
<path opacity="0.2" d="M11.7503 6H6.00024V20.2504H11.7503C12.0153 20.2497 12.2693 20.1442 12.4567 19.9568C12.6441 19.7695 12.7498 19.5156 12.7506 19.2506V6.99977C12.7498 6.73477 12.6441 6.48087 12.4567 6.29354C12.2693 6.10621 12.0153 6.00067 11.7503 6Z" fill="black"/>
<path opacity="0.2" d="M11.7503 6H6.00024V18.75H11.7503C12.0153 18.7493 12.2693 18.6437 12.4567 18.4564C12.6441 18.2691 12.7498 18.0152 12.7506 17.7502V6.99977C12.7498 6.73477 12.6441 6.48087 12.4567 6.29354C12.2693 6.10621 12.0153 6.00067 11.7503 6Z" fill="black"/>
<path opacity="0.2" d="M11.0006 6H6.00024V18.75H11.0006C11.2655 18.7491 11.5193 18.6436 11.7067 18.4562C11.894 18.2689 11.9996 18.0151 12.0004 17.7502V6.99977C11.9996 6.73486 11.894 6.48104 11.7067 6.29372C11.5193 6.1064 11.2655 6.00081 11.0006 6Z" fill="black"/>
<path d="M0.999766 6H11.0005C11.2656 6 11.5199 6.10533 11.7074 6.29282C11.8949 6.48032 12.0003 6.73461 12.0003 6.99977V17.0005C12.0003 17.2656 11.8949 17.5199 11.7074 17.7074C11.5199 17.8949 11.2656 18.0003 11.0005 18.0003H0.999766C0.734611 18.0003 0.480317 17.8949 0.292825 17.7074C0.105332 17.5199 0 17.2656 0 17.0005V6.99977C0 6.86847 0.0258597 6.73847 0.0761026 6.61717C0.126346 6.49587 0.199988 6.38566 0.292825 6.29282C0.385661 6.19999 0.495875 6.12635 0.617172 6.0761C0.738469 6.02586 0.868475 6 0.999766 6Z" fill="#185ABD"/>
<path d="M8.9627 15.75H7.61314L6.03807 10.5748L4.38781 15.75H3.03775L1.53784 8.25H2.88791L3.93779 13.4999L5.51287 8.39984H6.63793L8.13783 13.4999L9.18771 8.25H10.4616L8.9627 15.75Z" fill="white"/>
</g>
<defs>
<clipPath id="clip0_1173_7745">
<rect width="24" height="24" fill="white"/>
</clipPath>
</defs>
</svg>
