<svg width="20" height="21" viewBox="0 0 20 21" fill="none" xmlns="http://www.w3.org/2000/svg">
<path d="M18.7509 10.6944C18.7509 9.97495 18.6913 9.44995 18.5624 8.90552H10.1795V12.1527H15.1001C15.0009 12.9597 14.4652 14.175 13.2747 14.9916L13.258 15.1003L15.9085 17.1126L16.0922 17.1305C17.7786 15.6041 18.7509 13.3583 18.7509 10.6944Z" fill="#4285F4"/>
<path d="M10.1789 19.25C12.5896 19.25 14.6134 18.4722 16.0916 17.1305L13.2741 14.9916C12.5202 15.5068 11.5083 15.8666 10.1789 15.8666C7.81784 15.8666 5.81389 14.3402 5.09954 12.2305L4.99483 12.2392L2.23879 14.3295L2.20274 14.4277C3.67098 17.286 6.68684 19.25 10.1789 19.25Z" fill="#34A853"/>
<path d="M5.10005 12.2306C4.91156 11.6862 4.80248 11.1028 4.80248 10.5C4.80248 9.89722 4.91156 9.31391 5.09013 8.76948L5.08514 8.65352L2.29455 6.52966L2.20324 6.57222C1.59811 7.75835 1.25089 9.09032 1.25089 10.5C1.25089 11.9098 1.59811 13.2417 2.20324 14.4278L5.10005 12.2306Z" fill="#FBBC05"/>
<path d="M10.179 5.13331C11.8555 5.13331 12.9865 5.84303 13.6313 6.43613L16.1512 4.025C14.6036 2.61528 12.5897 1.75 10.179 1.75C6.68687 1.75 3.67098 3.71387 2.20274 6.57218L5.08964 8.76944C5.81391 6.65972 7.81787 5.13331 10.179 5.13331Z" fill="#EB4335"/>
</svg>
