<svg width="100" height="100" viewBox="0 0 100 100" fill="none" xmlns="http://www.w3.org/2000/svg">
<path d="M66.418 32.5417H79.168C79.4879 32.5764 79.8113 32.5262 80.1057 32.3963C80.4001 32.2664 80.6551 32.0613 80.8451 31.8016C81.0351 31.5419 81.1534 31.2368 81.1882 30.9169C81.2229 30.597 81.1728 30.2736 81.043 29.9792C80.9363 29.6871 80.7481 29.4317 80.5007 29.2434C80.2533 29.0551 79.9571 28.9417 79.6471 28.9167H78.918H53.7305C53.4526 28.888 53.1719 28.9217 52.9088 29.0154C52.6456 29.1092 52.4068 29.2605 52.2096 29.4583C51.9401 29.7249 51.761 30.0693 51.6975 30.443C51.634 30.8168 51.6892 31.201 51.8555 31.5417C51.9565 31.8391 52.1427 32.1003 52.3908 32.2928C52.6389 32.4854 52.9381 32.6009 53.2513 32.625H53.9596L66.418 32.5417Z" fill="#9CA3AF"/>
<path d="M71.914 39.9167H64.7473C64.374 39.9332 64.0068 40.018 63.664 40.1667C63.2992 40.3579 63.0136 40.6717 62.8574 41.0527C62.7011 41.4338 62.6843 41.8578 62.8098 42.25C62.9036 42.6558 63.1407 43.0141 63.4775 43.259C63.8143 43.504 64.2282 43.6191 64.6432 43.5834H79.2265C79.4707 43.6071 79.7172 43.5786 79.9496 43.4997C80.182 43.4209 80.3949 43.2935 80.5742 43.126C80.7536 42.9585 80.8952 42.7547 80.9897 42.5282C81.0842 42.3018 81.1294 42.0578 81.1223 41.8125C81.1485 41.5977 81.1321 41.3799 81.074 41.1714C81.0159 40.963 80.9173 40.768 80.7838 40.5977C80.6503 40.4275 80.4845 40.2852 80.2959 40.179C80.1073 40.0729 79.8997 40.005 79.6848 39.9792C79.4353 39.9586 79.1844 39.9586 78.9348 39.9792L71.914 39.9167Z" fill="#9CA3AF"/>
<path d="M53.1029 60.4167C55.4051 60.1493 57.7234 60.0448 60.0404 60.1042C60.214 60.1057 60.3824 60.1642 60.5195 60.2708L74.3112 70.6875C74.7579 70.9994 75.309 71.124 75.8464 71.0344C76.3839 70.9448 76.8648 70.6483 77.1862 70.2083C77.3452 69.8772 77.4237 69.5131 77.4154 69.1458C77.4154 66.25 77.4154 63.3333 77.4154 60.4375V60.1042H88.2487C89.9639 60.1374 91.6368 59.57 92.9779 58.5C93.7982 57.8863 94.4775 57.1039 94.9699 56.2054C95.4622 55.307 95.7562 54.3134 95.832 53.2917C95.8632 52.7088 95.8632 52.1246 95.832 51.5417V19.9375C95.8764 18.2015 95.3086 16.5052 94.2279 15.1458C93.6007 14.3349 92.8083 13.6666 91.9032 13.1853C90.998 12.7039 90.0009 12.4207 88.9779 12.3542C88.3945 12.3542 87.7695 12.3542 87.1654 12.3542H44.6654C43.5171 12.3134 42.3752 12.5407 41.3301 13.018C40.285 13.4954 39.3655 14.2096 38.6445 15.1042C37.6966 16.2502 37.1287 17.6626 37.0195 19.1458C37.0195 19.7292 37.0195 20.3333 37.0195 20.9167V31.0417H40.6862V19.3333C40.7096 18.7371 40.887 18.1571 41.2009 17.6496C41.5149 17.1422 41.9548 16.7246 42.4779 16.4375C43.1144 16.0877 43.8358 15.9218 44.5612 15.9583H88.8112C89.4013 15.9948 89.9726 16.1802 90.4717 16.4971C90.9708 16.814 91.3814 17.2523 91.6654 17.7708C91.9963 18.4138 92.1543 19.1317 92.1237 19.8542V52.6042C92.1346 52.7637 92.1346 52.9238 92.1237 53.0833C92.1074 53.6868 91.9334 54.2754 91.6191 54.7907C91.3048 55.3061 90.8611 55.7302 90.332 56.0208C89.6941 56.3655 88.9723 56.5243 88.2487 56.4792H77.6654C77.2374 56.4762 76.8107 56.5252 76.3945 56.625C75.7013 56.7863 75.0774 57.1639 74.613 57.7032C74.1486 58.2425 73.8678 58.9156 73.8112 59.625C73.8112 60.9375 73.8112 62.2708 73.8112 63.6042V65.6875L73.5612 65.5L62.707 57.3542C61.9629 56.7765 61.0449 56.4681 60.1029 56.4792H53.0195L53.1029 60.4167Z" fill="#9CA3AF"/>
<path d="M4.16524 49.1042V48.75C4.16524 44.5833 4.16524 40.5417 4.16524 36.4583C4.12548 35.1017 4.46517 33.7608 5.14609 32.5867C5.827 31.4126 6.82211 30.4518 8.01941 29.8125C8.92234 29.2877 9.93534 28.9809 10.9777 28.9167C11.6027 28.9167 12.2277 28.9167 12.8319 28.9167H48.1027C49.3266 28.8773 50.5407 29.1467 51.633 29.7001C52.7253 30.2536 53.6607 31.0732 54.3527 32.0833C55.1232 33.1594 55.5778 34.4294 55.6652 35.75C55.6652 36.375 55.6652 37 55.6652 37.6042V53.125C55.6652 58.4375 55.6652 63.7708 55.6652 69.1042C55.7046 70.4583 55.367 71.7967 54.6901 72.9702C54.0133 74.1437 53.0237 75.106 51.8319 75.75C50.71 76.39 49.4357 76.714 48.1444 76.6875H36.3527C36.1334 76.6858 35.9202 76.7593 35.7486 76.8958L22.0819 87.3125C21.7194 87.5879 21.2767 87.737 20.8215 87.737C20.3663 87.737 19.9235 87.5879 19.5611 87.3125C19.3482 87.1545 19.1778 86.9463 19.0651 86.7063C18.9524 86.4664 18.9009 86.2022 18.9152 85.9375C18.9152 85.125 18.9152 84.2917 18.9152 83.4792V76.6875H11.8111C10.6026 76.7034 9.40838 76.4245 8.33191 75.875C7.29979 75.3728 6.40342 74.6299 5.71821 73.7091C5.03299 72.7882 4.57899 71.7162 4.39441 70.5833C4.26654 69.9798 4.18988 69.3665 4.16524 68.75V49.1042ZM22.5402 82.2292L22.8736 81.9792L33.6444 73.8542C34.1032 73.483 34.6475 73.2324 35.2277 73.125C35.5431 73.0595 35.864 73.0246 36.1861 73.0208H48.4777C49.3334 73.043 50.1636 72.7288 50.7902 72.1458C51.2125 71.7894 51.5482 71.3416 51.772 70.8363C51.9958 70.331 52.1017 69.7814 52.0819 69.2292V35.8958C52.0361 35.387 51.88 34.8942 51.6246 34.4517C51.3691 34.0092 51.0205 33.6276 50.6027 33.3333C49.9064 32.8348 49.0624 32.5853 48.2069 32.625H11.2694C10.4623 32.6099 9.67232 32.8586 9.01941 33.3333C8.6256 33.7062 8.31736 34.1601 8.11595 34.6636C7.91453 35.1672 7.82473 35.7084 7.85274 36.25V69.5833C7.88484 70.4992 8.26863 71.3674 8.92433 72.0076C9.58004 72.6478 10.4572 73.0107 11.3736 73.0208C13.8527 73.0208 16.3319 73.0208 18.8111 73.0208C19.5364 72.9854 20.2574 73.1512 20.8944 73.5C21.455 73.8251 21.9151 74.2986 22.2238 74.8683C22.5326 75.4381 22.6781 76.082 22.6444 76.7292C22.6444 78.4375 22.6444 80.1667 22.6444 81.875L22.5402 82.2292Z" fill="#9CA3AF"/>
<path d="M30.2051 54.1684C32.059 54.1706 33.8851 54.5827 35.5296 55.3699C37.156 56.1866 38.5452 57.3508 39.5801 58.7645L36.9015 60.4167C36.1654 59.3976 35.1667 58.5617 33.9943 57.9834C32.8298 57.4073 31.5273 57.1079 30.2051 57.1123C28.8838 57.1153 27.5833 57.4143 26.4159 57.9834C25.2435 58.5617 24.2448 59.3976 23.5086 60.4167L20.8301 58.7645C21.8437 57.3215 23.2223 56.1259 24.8479 55.2798C26.5107 54.5191 28.3482 54.1379 30.2051 54.1684Z" fill="#9CA3AF"/>
<path d="M36.473 43.8081C35.8543 43.8035 35.2479 43.9792 34.7282 44.3134C34.2205 44.6569 33.8238 45.1396 33.5862 45.7031C33.334 46.2683 33.2673 46.8983 33.3958 47.5034C33.5162 48.1125 33.8141 48.6727 34.2524 49.1142C34.6911 49.5336 35.2416 49.8187 35.8385 49.9354C36.4438 50.0592 37.0723 50.0043 37.6467 49.7774C38.2127 49.5409 38.6975 49.1459 39.0425 48.6404C39.3778 48.1445 39.5648 47.564 39.5818 46.9665C39.5868 46.5558 39.5114 46.1482 39.3597 45.7663C39.211 45.3181 38.9488 44.9156 38.5984 44.5977C38.3364 44.2748 38.013 44.0064 37.6467 43.8081C37.2593 43.7306 36.8603 43.7306 36.473 43.8081Z" fill="#9CA3AF"/>
<path d="M23.9414 43.8075C23.3335 43.8091 22.7389 43.9845 22.2283 44.3129C21.7205 44.6564 21.3238 45.1392 21.0862 45.7027C20.834 46.268 20.7673 46.8981 20.8958 47.5032C21.0162 48.1123 21.3141 48.6726 21.7524 49.1141C22.1911 49.5336 22.7417 49.8187 23.3386 49.9354C23.9439 50.0592 24.5724 50.0043 25.1469 49.7774C25.7128 49.5408 26.1977 49.1458 26.5427 48.6403C26.878 48.1443 27.065 47.5638 27.082 46.9662C27.0725 46.5569 26.9976 46.1517 26.86 45.7659C26.6959 45.3868 26.4588 45.0434 26.162 44.7551C25.8983 44.3684 25.5515 44.0447 25.1469 43.8075C24.7487 43.7308 24.3395 43.7308 23.9414 43.8075Z" fill="#9CA3AF"/>
</svg>
