<svg width="76" height="86" viewBox="0 0 76 86" fill="none" xmlns="http://www.w3.org/2000/svg">
<path d="M46.5234 17.8473C46.5234 18.2383 46.5097 18.6266 46.4797 19.0149C46.466 19.1926 46.4496 19.3676 46.4304 19.5453C46.4304 19.6328 46.4113 19.7203 46.4004 19.8188C46.425 19.6246 46.425 19.6547 46.4004 19.8188C46.2701 20.5887 46.0874 21.3488 45.8535 22.0938C45.7496 22.4219 45.6293 22.7418 45.5062 23.0617C45.3969 23.3352 45.6238 22.7883 45.5062 23.0617C45.4707 23.141 45.4379 23.2176 45.4023 23.2942C45.3203 23.4746 45.2328 23.6551 45.1425 23.841C44.8118 24.4945 44.4344 25.1232 44.0133 25.7223C43.9011 25.8836 43.7863 26.0422 43.666 26.1981C43.8629 25.941 43.6222 26.2473 43.5484 26.3375C43.2969 26.6383 43.0353 26.93 42.7636 27.2125C42.5285 27.4532 42.2879 27.6856 42.039 27.9125C41.895 28.0438 41.7474 28.1723 41.5961 28.2981C41.5113 28.3719 41.1176 28.6836 41.3937 28.4703C40.8127 28.9153 40.1994 29.3165 39.559 29.6707C39.239 29.8485 38.9109 30.0153 38.5773 30.1711C38.509 30.2039 38.0961 30.3844 38.2629 30.316C38.4789 30.2258 38.1453 30.3598 38.0961 30.3789L37.7761 30.4992C37.0717 30.7534 36.3497 30.9563 35.616 31.1063L35.0992 31.202C35.0445 31.202 34.6808 31.2676 34.9215 31.2321C35.1621 31.1965 34.8504 31.2321 34.8258 31.2321C34.4429 31.2731 34.0574 31.3059 33.6718 31.3223C32.865 31.3525 32.057 31.3223 31.2547 31.2321C30.8746 31.191 31.4406 31.2703 31.066 31.2047L30.5492 31.1117C30.1527 31.0324 29.759 30.9395 29.3679 30.8383C28.9769 30.7371 28.6543 30.6223 28.3043 30.4965L27.823 30.3133C27.6179 30.234 27.8613 30.3297 27.8886 30.3434L27.5797 30.2039C26.8866 29.8907 26.2183 29.525 25.5808 29.1102C25.2746 28.9115 24.9765 28.7009 24.6867 28.4785C24.9437 28.6754 24.6375 28.4348 24.5472 28.361C24.3968 28.2352 24.2492 28.1067 24.1043 27.9782C23.5415 27.4697 23.0161 26.9214 22.532 26.3375C22.4582 26.2473 22.2176 25.941 22.4144 26.1981C22.3105 26.0641 22.2121 25.9246 22.1136 25.7934C21.8862 25.4716 21.671 25.1415 21.4683 24.8035C21.286 24.5137 21.122 24.2184 20.9761 23.9176C20.8832 23.7399 20.7984 23.5621 20.7027 23.3707C20.6535 23.2668 20.4593 22.7992 20.5906 23.1274C20.3005 22.4093 20.0638 21.6709 19.8824 20.918C19.8004 20.5762 19.732 20.2344 19.6718 19.8899L19.6308 19.6301C19.6308 19.7094 19.6718 20.002 19.6308 19.6164C19.609 19.4114 19.5871 19.2063 19.5707 18.9985C19.5133 18.2211 19.5133 17.4406 19.5707 16.6633C19.5871 16.4582 19.609 16.2504 19.6308 16.0453C19.6718 15.668 19.5926 16.2313 19.6582 15.8567C19.7238 15.4821 19.8058 15.0582 19.9015 14.6617C20.0803 13.938 20.3106 13.228 20.5906 12.5371C20.4676 12.8407 20.6179 12.477 20.6672 12.3703C20.7492 12.1899 20.8367 12.0121 20.9242 11.8235C21.091 11.4953 21.2687 11.1754 21.4574 10.861C21.6461 10.5465 21.8457 10.2403 22.0562 9.94221C22.1519 9.80276 22.2504 9.66878 22.3515 9.53206L22.3078 9.58948C22.3953 9.48011 22.4855 9.37073 22.5812 9.26409C23.0482 8.70553 23.5554 8.18186 24.0988 7.69729C24.2218 7.58518 24.3504 7.47307 24.4789 7.36643C24.55 7.30628 24.9793 6.96448 24.6812 7.19417C24.9711 6.97177 25.2691 6.76123 25.5754 6.56253C26.2135 6.14871 26.8816 5.78311 27.5742 5.46878C27.6808 5.41956 28.0418 5.26917 27.7383 5.39221L28.2168 5.20628C28.5941 5.06956 28.9769 4.93284 29.3625 4.83714C29.748 4.74143 30.0898 4.64573 30.4562 4.5637C30.6285 4.52815 30.798 4.49534 30.973 4.468L31.2328 4.42425C31.0386 4.45706 31.0687 4.44339 31.2465 4.42425C32.0489 4.33535 32.8568 4.30519 33.6636 4.33401C34.0191 4.35042 34.3746 4.37503 34.73 4.41604L35.0035 4.44612C34.6398 4.39964 34.9461 4.44612 35.0172 4.44612C35.2168 4.4844 35.4191 4.51722 35.6187 4.55823C36.3531 4.70569 37.0752 4.90861 37.7789 5.16526C37.9676 5.23089 38.1535 5.30472 38.3258 5.37854C38.0222 5.2555 38.3859 5.40589 38.4925 5.45511C38.8535 5.6219 39.2062 5.79964 39.5508 6.00198C40.1906 6.35717 40.8038 6.75835 41.3855 7.20237C41.1285 7.0055 41.4347 7.24612 41.5222 7.31995C41.6754 7.44573 41.823 7.57425 41.9679 7.7055C42.2414 7.94886 42.5011 8.20042 42.7554 8.46292C43.0097 8.72542 43.2531 8.99338 43.4855 9.28323C43.5347 9.34338 43.8136 9.68518 43.7043 9.55667C43.5949 9.42815 43.7453 9.61135 43.759 9.6305C43.841 9.74534 43.9258 9.85745 44.005 9.97229C44.4262 10.5714 44.8036 11.2001 45.1343 11.8535C45.2109 12.0039 45.2847 12.1571 45.3586 12.3129C45.4051 12.4141 45.6074 12.8953 45.4707 12.5563C45.6101 12.9008 45.7441 13.2481 45.8507 13.6008C46.086 14.3454 46.2687 15.1056 46.3976 15.8758C46.4605 16.2504 46.384 15.6871 46.425 16.0645C46.4441 16.2395 46.4633 16.4172 46.4769 16.5949C46.5097 17.0133 46.5234 17.4317 46.5261 17.85C46.5261 18.8563 47.4066 19.8188 48.4402 19.7641C48.9446 19.7536 49.4254 19.5486 49.7821 19.1919C50.1388 18.8352 50.3438 18.3544 50.3543 17.85C50.3217 14.2809 49.2031 10.8064 47.1471 7.88878C45.0912 4.97117 42.1954 2.74886 38.8453 1.51761C32.1707 -0.943332 24.241 1.21135 19.7265 6.71292C15.0781 12.3539 14.3234 20.4477 18.116 26.7586C19.9865 29.8284 22.7543 32.2499 26.0454 33.6959C29.3365 35.1419 32.9921 35.5427 36.5183 34.8442C43.4062 33.477 49.0609 27.6309 50.1136 20.6801C50.2621 19.7465 50.3425 18.8034 50.3543 17.8582C50.3543 16.852 49.4656 15.8895 48.4402 15.9442C47.9376 15.9552 47.4585 16.1588 47.1018 16.513C46.7451 16.8672 46.538 17.3448 46.5234 17.8473ZM39.5754 37.2614C31.6074 35.7985 23.2976 37.0207 16.2183 41.0157C9.98772 44.5259 5.10189 50.0091 2.33044 56.6016C0.785754 60.3196 0.0189543 64.3146 0.0773168 68.3403C0.087117 68.8448 0.291923 69.326 0.648777 69.6829C1.00563 70.0397 1.48681 70.2445 1.99138 70.2543H28.9441C29.9504 70.2543 30.9129 69.3711 30.8582 68.3403C30.8477 67.8359 30.6427 67.3551 30.286 66.9984C29.9293 66.6417 29.4485 66.4367 28.9441 66.4262H1.99958L3.91364 68.3403C3.90088 67.4981 3.92732 66.6577 3.99294 65.8192C4.02302 65.4172 4.06404 65.0153 4.11052 64.616L4.14333 64.359C4.09411 64.7391 4.14333 64.4356 4.14333 64.359C4.17888 64.1321 4.21169 63.9078 4.25271 63.6809C4.53211 62.0695 4.95207 60.4858 5.50779 58.9477C5.64177 58.5785 5.78123 58.2149 5.92888 57.8539C5.92888 57.8293 6.04919 57.5805 5.96169 57.7746C5.87419 57.9688 6.00818 57.6707 6.03005 57.6215C6.12029 57.4192 6.21325 57.2141 6.30349 57.0145C6.64529 56.2844 7.01989 55.568 7.42185 54.868C7.8238 54.168 8.24216 53.5008 8.71247 52.8282C8.93396 52.5082 9.16091 52.1938 9.39333 51.8821L9.54646 51.6824C9.32224 51.9559 9.49997 51.7426 9.54646 51.6824C9.68591 51.5102 9.81989 51.3352 9.96755 51.1629C11.0013 49.9168 12.1333 48.7555 13.3527 47.6903C13.648 47.4332 13.9488 47.1789 14.2551 46.9328L14.6488 46.6184C14.3535 46.8508 14.9222 46.4133 15.0015 46.3586C15.6596 45.8719 16.3386 45.4162 17.0386 44.9914C17.714 44.5731 18.4058 44.1711 19.1168 43.8129C19.4722 43.627 19.8304 43.4492 20.1941 43.266C20.3746 43.1785 20.5578 43.0965 20.741 43.0145C20.8285 42.9735 21.4984 42.6918 21.1539 42.8313C22.6927 42.2018 24.2767 41.689 25.8925 41.2973C26.8468 41.0703 27.8066 40.8899 28.7828 40.7504H28.884C28.6406 40.7832 29.1191 40.7231 29.1574 40.7176C29.3953 40.6875 29.6359 40.6629 29.8765 40.641C30.3633 40.5946 30.8472 40.559 31.334 40.5344C33.7474 40.4034 36.1679 40.552 38.5472 40.9774C39.5343 41.1578 40.6691 40.7039 40.9125 39.6348C41.1285 38.6914 40.639 37.4637 39.5699 37.2696L39.5754 37.2614ZM60.0804 51.5895C62.1039 51.5895 62.1066 48.4449 60.0804 48.4449C58.0543 48.4449 58.0543 51.5895 60.0804 51.5895Z" fill="#9CA3AF"/>
<path d="M60.8653 57.8951C60.8644 60.7327 59.7637 63.4596 57.7945 65.5028C55.8253 67.5459 53.1408 68.7463 50.3051 68.8517C49.8821 68.8654 49.4586 68.8572 49.0364 68.8271L48.4895 68.7779C48.6536 68.7998 48.3118 68.7505 48.2817 68.7451L47.8661 68.6685C47.4238 68.5809 46.9866 68.4695 46.5563 68.3349C46.1736 68.2162 45.7983 68.0747 45.4325 67.9111C43.8011 67.1745 42.3725 66.0538 41.2687 64.6448C40.1648 63.2357 39.4188 61.5803 39.0942 59.8201C39.0218 59.4844 38.9779 59.1432 38.9629 58.8001C38.9246 58.2933 38.9192 57.7846 38.9465 57.2771C38.9799 56.4599 39.1178 55.6503 39.3567 54.8681C39.8232 53.23 40.6659 51.7234 41.8176 50.4685C44.9211 47.1353 50.0016 45.9513 54.2536 47.8271C55.0301 48.1689 55.9434 48.0541 56.4055 47.2638C56.7965 46.5966 56.6215 45.4564 55.8395 45.1119C53.428 44.0177 50.7604 43.6135 48.1331 43.9441C45.5057 44.2748 43.0215 45.3274 40.9563 46.9849C39.2468 48.3876 37.8908 50.1723 36.9974 52.1951C36.104 54.2179 35.6983 56.4223 35.8129 58.6306C36.0045 62.3034 37.6228 65.7562 40.323 68.2531C43.0232 70.7501 46.5918 72.0938 50.2683 71.9979C53.9448 71.9019 57.4385 70.374 60.0049 67.7396C62.5712 65.1053 64.0073 61.5728 64.0071 57.8951C64.0235 55.8716 60.8789 55.8689 60.8625 57.8951H60.8653ZM58.9348 67.0744L74.0176 83.5791L58.9348 67.0744Z" fill="#9CA3AF"/>
<path d="M57.5755 68.4333L62.6533 73.9896L70.7962 82.9009L72.6583 84.938C73.3583 85.7036 74.6654 85.6489 75.3763 84.938C75.729 84.573 75.9261 84.0852 75.9261 83.5777C75.9261 83.0701 75.729 82.5823 75.3763 82.2173L70.2986 76.661L62.1529 67.7497L60.2935 65.7153C59.5935 64.947 58.2865 65.0044 57.5755 65.7153C57.2224 66.0796 57.0249 66.567 57.0249 67.0743C57.0249 67.5817 57.2224 68.0691 57.5755 68.4333Z" fill="#9CA3AF"/>
</svg>
