<svg width="36" height="36" viewBox="0 0 36 36" fill="none" xmlns="http://www.w3.org/2000/svg">
<g clip-path="url(#clip0_2829_8798)">
<path d="M21.9525 7.947V15.5685L24.906 17.916L35.9595 9.012C35.9539 8.86459 35.9179 8.71992 35.8539 8.58702C35.7899 8.45411 35.6992 8.33581 35.5875 8.2395C35.3615 8.04488 35.0712 7.94117 34.773 7.9485L21.9525 7.947ZM20.106 1.125L0 4.731V31.365L20.106 34.875V1.125ZM12.759 22.3065C11.9025 23.4375 10.824 24.027 9.5415 24.0795C8.301 24.015 7.2465 23.418 6.39 22.2975C5.535 21.1695 5.085 19.761 5.0625 18.0675C5.085 16.3515 5.5125 14.928 6.3675 13.803C7.224 12.6795 8.2815 12.0885 9.5175 12.039C10.8015 12.0885 11.8815 12.681 12.714 13.803C13.563 14.928 14.0025 16.35 14.0325 18.0675H14.0865C14.064 19.7595 13.614 21.1725 12.759 22.3065Z" fill="#136EC5"/>
<path d="M9.35253 14.3053L9.31203 14.3653C8.65953 14.4118 8.11652 14.7763 7.69052 15.4573C7.24052 16.1383 7.03802 17.0263 7.03802 18.0943C7.03802 19.1608 7.24052 20.0488 7.69052 20.7523C8.14052 21.4558 8.67903 21.7978 9.33303 21.7978C9.98703 21.7978 10.5255 21.4348 10.977 20.7313C11.406 20.0278 11.6295 19.1398 11.6295 18.0478C11.6295 16.9768 11.4045 16.0918 10.977 15.3928C10.5435 14.6938 9.99903 14.3368 9.35253 14.3053ZM21.9525 28.1098H34.773C34.934 28.1133 35.094 28.0844 35.2435 28.0246C35.393 27.9648 35.5289 27.8754 35.643 27.7618C35.7596 27.6488 35.8516 27.5129 35.913 27.3627C35.9745 27.2124 36.0041 27.0511 36 26.8888V11.0098L25.5045 19.4248C25.3378 19.5538 25.1318 19.6215 24.921 19.6168C24.7147 19.6242 24.5127 19.5565 24.3525 19.4263L21.9525 17.5633V28.1098Z" fill="#136EC5"/>
</g>
<defs>
<clipPath id="clip0_2829_8798">
<rect width="36" height="36" fill="white"/>
</clipPath>
</defs>
</svg>
