<svg width="26" height="24" viewBox="0 0 26 24" fill="none" xmlns="http://www.w3.org/2000/svg">
<g clip-path="url(#clip0_1173_7706)">
<path d="M4.452 0H20.748C23.184 0 25.2 1.96923 25.2 4.34872V19.6103C25.2 22.0308 23.184 23.959 20.748 23.959H4.452C2.016 24 0 22.0308 0 19.6513V4.34872C0 1.96923 2.016 0 4.452 0Z" fill="#B30B00"/>
<path d="M20.2441 13.9078C19.7401 13.3744 18.7741 13.1283 17.3881 13.1283C16.6321 13.1283 15.8341 13.2103 15.0781 13.3334C14.5741 12.8821 14.1541 12.3488 13.7341 11.8155C13.4401 11.4052 13.1461 10.995 12.8941 10.5437C13.3141 9.39496 13.5661 8.16419 13.6501 6.93342C13.6501 5.82573 13.1881 4.63599 11.9281 4.63599C11.5081 4.63599 11.0881 4.88214 10.8781 5.25137C10.3321 6.15394 10.5421 8.00009 11.4241 9.92829C11.1301 10.7898 10.7941 11.6514 10.4161 12.595C10.0801 13.4155 9.70211 14.195 9.24011 14.9334C7.93811 15.4257 5.20811 16.6565 4.95611 18.0103C4.87211 18.4206 4.99811 18.8309 5.33411 19.077C5.62811 19.3232 6.04811 19.4873 6.46811 19.4462C8.10611 19.4462 9.74411 17.2309 10.8781 15.3027C11.5081 15.0975 12.1381 14.8924 12.8101 14.7283C13.5241 14.5642 14.1961 14.4001 14.8261 14.277C16.5901 15.7539 18.1441 16.0001 18.9001 16.0001C19.9501 16.0001 20.3701 15.5488 20.4961 15.1796C20.6641 14.7283 20.5801 14.236 20.2441 13.9078ZM19.1101 14.6873C19.0681 14.9744 18.7321 15.1796 18.3121 15.1796C18.1861 15.1796 18.0601 15.1796 17.9341 15.1386C17.0941 14.9334 16.2961 14.5232 15.6241 13.9898C16.1701 13.9078 16.7581 13.8668 17.3041 13.8668C17.6821 13.8668 18.0601 13.9078 18.4381 13.9488C18.8161 14.0309 19.2361 14.195 19.1101 14.6873ZM11.5921 5.6206C11.6761 5.49752 11.8021 5.41547 11.9701 5.37445C12.3901 5.37445 12.4741 5.82573 12.4741 6.23599C12.4321 7.17958 12.2641 8.08214 11.9701 8.9847C11.2561 7.2206 11.3401 6.03086 11.5921 5.6206ZM13.9441 13.4975C13.4821 13.5796 13.0201 13.7027 12.5581 13.8257C12.2221 13.9078 11.8861 14.0309 11.5081 14.1129C11.6761 13.7437 11.8441 13.3744 12.0121 13.0462C12.2221 12.595 12.3901 12.1437 12.5581 11.6924C12.7261 11.9386 12.8521 12.1437 13.0201 12.3488C13.3141 12.7591 13.6501 13.1283 13.9441 13.4975ZM8.86211 15.877C7.81211 17.518 6.76211 18.5847 6.17411 18.5847C6.09011 18.5847 5.96411 18.5437 5.92211 18.5027C5.79611 18.4206 5.75411 18.2565 5.79611 18.1334C5.88011 17.518 7.09811 16.6565 8.86211 15.877Z" fill="white"/>
</g>
<defs>
<clipPath id="clip0_1173_7706">
<rect width="25.2" height="24" fill="white"/>
</clipPath>
</defs>
</svg>
