<svg width="33" height="32" viewBox="0 0 33 32" fill="none" xmlns="http://www.w3.org/2000/svg">
<path d="M6.75163 20.2293C6.75163 22.0891 5.24844 23.5923 3.38857 23.5923C1.5287 23.5923 0.0255127 22.0891 0.0255127 20.2293C0.0255127 18.3694 1.5287 16.8662 3.38857 16.8662H6.75163V20.2293ZM8.43316 20.2293C8.43316 18.3694 9.93634 16.8662 11.7962 16.8662C13.6561 16.8662 15.1593 18.3694 15.1593 20.2293V28.6369C15.1593 30.4968 13.6561 32 11.7962 32C9.93634 32 8.43316 30.4968 8.43316 28.6369V20.2293Z" fill="#EF4444"/>
<path d="M11.7962 6.72611C9.9363 6.72611 8.43312 5.22293 8.43312 3.36306C8.43312 1.50318 9.9363 0 11.7962 0C13.656 0 15.1592 1.50318 15.1592 3.36306V6.72611H11.7962ZM11.7962 8.43312C13.656 8.43312 15.1592 9.93631 15.1592 11.7962C15.1592 13.6561 13.656 15.1592 11.7962 15.1592H3.36306C1.50318 15.1592 0 13.6561 0 11.7962C0 9.93631 1.50318 8.43312 3.36306 8.43312H11.7962Z" fill="#36C5F0"/>
<path d="M25.2739 11.7962C25.2739 9.93631 26.777 8.43312 28.6369 8.43312C30.4968 8.43312 32 9.93631 32 11.7962C32 13.6561 30.4968 15.1592 28.6369 15.1592H25.2739V11.7962ZM23.5923 11.7962C23.5923 13.6561 22.0891 15.1592 20.2293 15.1592C18.3694 15.1592 16.8662 13.6561 16.8662 11.7962V3.36306C16.8662 1.50318 18.3694 0 20.2293 0C22.0891 0 23.5923 1.50318 23.5923 3.36306V11.7962Z" fill="#2EB67D"/>
<path d="M20.2293 25.2739C22.0891 25.2739 23.5923 26.777 23.5923 28.6369C23.5923 30.4968 22.0891 32 20.2293 32C18.3694 32 16.8662 30.4968 16.8662 28.6369V25.2739H20.2293ZM20.2293 23.5923C18.3694 23.5923 16.8662 22.0891 16.8662 20.2293C16.8662 18.3694 18.3694 16.8662 20.2293 16.8662H28.6624C30.5223 16.8662 32.0254 18.3694 32.0254 20.2293C32.0254 22.0891 30.5223 23.5923 28.6624 23.5923H20.2293Z" fill="#ECB22E"/>
</svg>
