<svg width="12" height="12" viewBox="0 0 12 12" fill="none" xmlns="http://www.w3.org/2000/svg">
<path d="M6 0C4.81331 0 3.65328 0.351894 2.66658 1.01118C1.67989 1.67047 0.910851 2.60754 0.456725 3.7039C0.0025997 4.80025 -0.11622 6.00665 0.115291 7.17054C0.346802 8.33443 0.918247 9.40352 1.75736 10.2426C2.59648 11.0818 3.66557 11.6532 4.82946 11.8847C5.99335 12.1162 7.19975 11.9974 8.2961 11.5433C9.39246 11.0891 10.3295 10.3201 10.9888 9.33342C11.6481 8.34672 12 7.18669 12 6C11.9983 4.40924 11.3656 2.88413 10.2407 1.75929C9.11587 0.634449 7.59076 0.00174696 6 0ZM8.2242 5.2242L5.8242 7.6242C5.71169 7.73668 5.5591 7.79987 5.4 7.79987C5.2409 7.79987 5.08832 7.73668 4.9758 7.6242L3.7758 6.4242C3.66651 6.31104 3.60603 6.15948 3.6074 6.00216C3.60876 5.84484 3.67187 5.69435 3.78311 5.58311C3.89436 5.47186 4.04484 5.40876 4.20216 5.40739C4.35948 5.40603 4.51104 5.4665 4.6242 5.5758L5.4 6.3516L7.3758 4.3758C7.48896 4.2665 7.64052 4.20603 7.79784 4.20739C7.95516 4.20876 8.10565 4.27186 8.21689 4.38311C8.32814 4.49435 8.39124 4.64484 8.39261 4.80216C8.39397 4.95948 8.3335 5.11104 8.2242 5.2242Z" fill="#0E9F6E"/>
</svg>
