<svg width="12" height="12" viewBox="0 0 12 12" fill="none" xmlns="http://www.w3.org/2000/svg">
<g clip-path="url(#clip0_59_1980)">
<path d="M8.8242 2.64222L6.4242 0.180785C6.36847 0.123479 6.30225 0.0780124 6.22936 0.0469903C6.15647 0.0159683 6.07832 0 5.9994 0C5.92048 0 5.84233 0.0159683 5.76944 0.0469903C5.69655 0.0780124 5.63034 0.123479 5.5746 0.180785L3.1746 2.64222C3.06209 2.75777 2.99895 2.91442 2.99907 3.07772C2.99918 3.24101 3.06254 3.39757 3.1752 3.51296C3.28786 3.62834 3.44061 3.6931 3.59982 3.69299C3.75904 3.69287 3.9117 3.62789 4.0242 3.51234L5.4 2.10132V7.3848C5.4 7.54801 5.46321 7.70452 5.57574 7.81993C5.68826 7.93533 5.84087 8.00016 6 8.00016C6.15913 8.00016 6.31174 7.93533 6.42426 7.81993C6.53679 7.70452 6.6 7.54801 6.6 7.3848V2.10132L7.9758 3.51234C8.08896 3.62444 8.24052 3.68646 8.39784 3.68506C8.55516 3.68366 8.70565 3.61894 8.81689 3.50485C8.92814 3.39075 8.99124 3.23641 8.99261 3.07507C8.99397 2.91372 8.9335 2.75828 8.8242 2.64222Z" fill="white"/>
<path d="M10.8 7.07712H7.8V7.3848C7.8 7.87441 7.61036 8.34397 7.27279 8.69018C6.93523 9.03638 6.47739 9.23088 6 9.23088C5.52261 9.23088 5.06477 9.03638 4.72721 8.69018C4.38964 8.34397 4.2 7.87441 4.2 7.3848V7.07712H1.2C0.88174 7.07712 0.576515 7.20679 0.351472 7.43759C0.126428 7.6684 0 7.98143 0 8.30784V10.7693C0 11.0957 0.126428 11.4087 0.351472 11.6395C0.576515 11.8703 0.88174 12 1.2 12H10.8C11.1183 12 11.4235 11.8703 11.6485 11.6395C11.8736 11.4087 12 11.0957 12 10.7693V8.30784C12 7.98143 11.8736 7.6684 11.6485 7.43759C11.4235 7.20679 11.1183 7.07712 10.8 7.07712ZM9.3 10.7693C9.122 10.7693 8.94799 10.7151 8.79999 10.6137C8.65198 10.5123 8.53663 10.3681 8.46851 10.1995C8.40039 10.0308 8.38257 9.84522 8.41729 9.66617C8.45202 9.48711 8.53774 9.32264 8.6636 9.19355C8.78947 9.06446 8.94984 8.97655 9.12442 8.94094C9.299 8.90532 9.47996 8.9236 9.64441 8.99346C9.80887 9.06333 9.94943 9.18163 10.0483 9.33343C10.1472 9.48522 10.2 9.66368 10.2 9.84624C10.2 10.091 10.1052 10.3258 9.9364 10.4989C9.76761 10.672 9.5387 10.7693 9.3 10.7693Z" fill="white"/>
</g>
<defs>
<clipPath id="clip0_59_1980">
<rect width="12" height="12" fill="white"/>
</clipPath>
</defs>
</svg>
