<svg width="32" height="32" viewBox="0 0 32 32" fill="none" xmlns="http://www.w3.org/2000/svg">
<g clip-path="url(#clip0_1681_5199)">
<path d="M0 32L2.20688 24C0.772438 21.5173 0 18.7586 0 15.8896C0 7.17244 7.17244 0 15.9448 0C24.7172 0 32 7.17244 32 15.8896C32 24.6068 24.7172 32 15.9448 32C13.1862 32 10.5379 31.1173 8.1655 29.7931L0 32Z" fill="#EDEDED"/>
<path d="M8.60679 26.9243L9.10336 27.2002C11.1447 28.4691 13.5172 29.2415 15.9999 29.2415C23.2275 29.2415 29.2413 23.2277 29.2413 15.8898C29.2413 8.55185 23.2275 2.75879 15.9447 2.75879C8.66198 2.75879 2.75854 8.60704 2.75854 15.8898C2.75854 18.4277 3.47579 20.9105 4.79992 23.007L5.13098 23.5036L3.86204 28.1381L8.60679 26.9243Z" fill="#55CD6C"/>
<path d="M11.6966 8.49659L10.6484 8.44141C10.3173 8.44141 9.98632 8.55178 9.76563 8.77247C9.26907 9.21384 8.4415 10.0414 8.22082 11.1449C7.83463 12.8001 8.4415 14.7863 9.876 16.7725C11.3105 18.7587 14.0691 21.9587 18.9243 23.338C20.4691 23.7793 21.6829 23.5035 22.676 22.8966C23.4484 22.4 23.9449 21.6277 24.1105 20.8L24.276 20.0276C24.3312 19.8069 24.2208 19.531 24.0001 19.4207L20.5243 17.8207C20.3036 17.7103 20.0277 17.7655 19.8622 17.9862L18.4829 19.7517C18.3725 19.8621 18.207 19.9172 18.0415 19.8621C17.1036 19.531 13.9588 18.2069 12.2484 14.8966C12.1932 14.7311 12.1932 14.5655 12.3036 14.4552L13.6277 12.9656C13.7381 12.8001 13.7932 12.5794 13.7381 12.4138L12.1381 8.82766C12.0828 8.66209 11.9173 8.49659 11.6966 8.49659Z" fill="white"/>
</g>
<defs>
<clipPath id="clip0_1681_5199">
<rect width="32" height="32" fill="white"/>
</clipPath>
</defs>
</svg>
