<svg width="24" height="24" viewBox="0 0 24 24" fill="none" xmlns="http://www.w3.org/2000/svg">
<path d="M2.36876 8.57V8.435C2.36876 6.9 2.36876 5.365 2.36876 3.835C2.35147 3.326 2.47664 2.82229 2.73017 2.3806C2.98371 1.93891 3.35553 1.57678 3.80376 1.335C4.1447 1.13901 4.52627 1.02437 4.91877 0.999996C5.14877 0.999996 5.38376 0.999996 5.61376 0.999996H18.7938C19.2507 0.987418 19.7035 1.08978 20.1106 1.2977C20.5177 1.50562 20.8661 1.81243 21.1238 2.19C21.42 2.58839 21.5937 3.06445 21.6238 3.56C21.6238 3.79 21.6238 4.02 21.6238 4.255C21.6238 5.65166 21.6238 7.04666 21.6238 8.44V10.065C21.6238 12.065 21.6238 14.065 21.6238 16.065C21.6415 16.5735 21.5171 17.0768 21.2645 17.5185C21.0119 17.9601 20.6411 18.3225 20.1938 18.565C19.7723 18.8048 19.2936 18.9258 18.8088 18.915C17.3388 18.915 15.8671 18.915 14.3938 18.915C14.314 18.9138 14.2362 18.9403 14.1738 18.99L9.06376 22.825C8.93055 22.9343 8.76357 22.994 8.59126 22.994C8.41896 22.994 8.25198 22.9343 8.11876 22.825C8.04052 22.768 7.97763 22.6925 7.93575 22.6052C7.89386 22.518 7.87428 22.4217 7.87877 22.325C7.87877 22.02 7.87877 21.71 7.87877 21.4V18.9H5.21876C4.76249 18.909 4.31097 18.806 3.90376 18.6C3.51571 18.4091 3.17917 18.1278 2.92249 17.7798C2.66581 17.4317 2.49648 17.0271 2.42876 16.6C2.39039 16.3704 2.37199 16.1378 2.37376 15.905C2.37376 13.965 2.37376 12.02 2.37376 10.08V8.58L2.36876 8.57ZM9.24876 20.95L9.36876 20.86L13.3988 17.82C13.5745 17.6826 13.78 17.5884 13.9988 17.545C14.114 17.5206 14.2311 17.5056 14.3488 17.5H18.9388C19.26 17.5035 19.5707 17.3857 19.8088 17.17C19.9604 17.0345 20.0795 16.8666 20.1574 16.6788C20.2353 16.491 20.27 16.288 20.2588 16.085V3.655C20.2532 3.45404 20.2022 3.25696 20.1095 3.07856C20.0169 2.90016 19.885 2.74508 19.7238 2.625C19.463 2.44046 19.1478 2.34889 18.8288 2.365H4.99876C4.68742 2.37566 4.38987 2.49609 4.15876 2.705C4.01044 2.84235 3.89447 3.01094 3.81924 3.19858C3.74401 3.38621 3.7114 3.58822 3.72376 3.79V16.225C3.7413 16.4902 3.837 16.7442 3.99876 16.955C4.11976 17.1232 4.27893 17.2603 4.46319 17.355C4.64746 17.4498 4.85157 17.4995 5.05876 17.5H7.83877C8.0989 17.4906 8.35662 17.5528 8.58377 17.68C8.79456 17.8 8.96788 17.9763 9.08441 18.189C9.20094 18.4018 9.25611 18.6427 9.24376 18.885C9.24376 19.525 9.24376 20.17 9.24376 20.81L9.24876 20.95Z" fill="#DDE3FF"/>
<path d="M12 13.9992C11.1101 13.9981 10.2336 13.8003 9.44425 13.4224C8.66356 13.0304 7.99676 12.4716 7.5 11.7931L8.78571 11C9.13905 11.4892 9.61844 11.8904 10.1812 12.168C10.7401 12.4445 11.3653 12.5882 12 12.5861C12.6342 12.5846 13.2585 12.4411 13.8188 12.168C14.3816 11.8904 14.8609 11.4892 15.2143 11L16.5 11.7931C16.0135 12.4857 15.3518 13.0596 14.5714 13.4657C13.7733 13.8308 12.8913 14.0138 12 13.9992Z" fill="#DDE3FF"/>
<path d="M15.0076 6.02787C14.7107 6.02569 14.4196 6.11001 14.1702 6.27044C13.9265 6.4353 13.736 6.66702 13.622 6.93749C13.5009 7.20878 13.469 7.51119 13.5306 7.80163C13.5884 8.09398 13.7314 8.3629 13.9418 8.57481C14.1523 8.77615 14.4166 8.91297 14.7031 8.96898C14.9937 9.02841 15.2953 9.00207 15.571 8.89317C15.8427 8.77962 16.0754 8.59003 16.241 8.3474C16.4019 8.10936 16.4917 7.83073 16.4999 7.5439C16.5023 7.3468 16.4661 7.15112 16.3933 6.96781C16.3219 6.75269 16.196 6.5595 16.0279 6.40688C15.9021 6.25188 15.7469 6.12309 15.571 6.02787C15.3851 5.99071 15.1936 5.99071 15.0076 6.02787Z" fill="#DDE3FF"/>
<path d="M8.99247 6.02762C8.7007 6.02837 8.41528 6.11257 8.17019 6.2702C7.92649 6.43509 7.73606 6.66682 7.622 6.93732C7.50092 7.20863 7.46895 7.51106 7.53063 7.80153C7.58839 8.0939 7.73139 8.36285 7.94178 8.57477C8.15236 8.77613 8.41665 8.91297 8.70315 8.96897C8.99372 9.02842 9.29539 9.00207 9.57112 8.89317C9.84279 8.7796 10.0755 8.58999 10.2411 8.34735C10.4021 8.10928 10.4918 7.83063 10.5 7.54378C10.4954 7.34731 10.4595 7.15283 10.3934 6.96764C10.3147 6.78567 10.2008 6.62084 10.0584 6.48247C9.93179 6.29681 9.76536 6.14146 9.57112 6.02762C9.38001 5.99079 9.18358 5.99079 8.99247 6.02762Z" fill="#DDE3FF"/>
</svg>
