<svg width="32" height="32" viewBox="0 0 32 32" fill="none" xmlns="http://www.w3.org/2000/svg">
<g clip-path="url(#clip0_1681_5181)">
<path d="M31.6036 13.2092H22.2161L28.8126 6.61268C28.3051 5.85168 27.7976 5.34418 27.2901 4.58268C26.5599 4.05495 25.8805 3.46039 25.2606 2.80668L18.6651 9.40368V0.270178C17.8366 0.060475 16.9816 -0.024958 16.1281 0.0166776C15.2739 -0.0383903 14.4165 0.0472502 13.5901 0.270178V9.65768L6.74008 2.80768C5.95244 3.25914 5.2624 3.86267 4.71008 4.58318C4.20258 5.34418 3.44158 5.85168 2.93408 6.61318L9.53008 13.2092H0.397079L0.143579 15.7462C0.088621 16.6 0.174261 17.4571 0.397079 18.2832H9.78508L2.93508 25.1332C3.9374 26.6425 5.23123 27.9364 6.74058 28.9387L13.3371 22.3422V31.7302C14.1655 31.9399 15.0205 32.0253 15.8741 31.9837C16.7279 32.0386 17.585 31.953 18.4111 31.7302V22.3432L25.0071 28.9402C25.7946 28.4885 26.4845 27.8848 27.0366 27.1642C27.6903 26.5443 28.2849 25.8648 28.8126 25.1347L22.2161 18.5372H31.6036C31.8134 17.7088 31.8991 16.8538 31.8576 16.0002C31.9113 15.0624 31.8254 14.1219 31.6036 13.2092ZM19.9326 15.7462C19.9074 16.8631 19.7368 17.9719 19.4251 19.0447C18.3767 19.4558 17.2501 19.6291 16.1266 19.5522C15.0097 19.527 13.9009 19.3564 12.8281 19.0447C12.417 17.9963 12.2437 16.8697 12.3206 15.7462C12.3458 14.6293 12.5164 13.5205 12.8281 12.4477C13.8765 12.0366 15.0031 11.8633 16.1266 11.9402C17.2435 11.9654 18.3523 12.136 19.4251 12.4477C19.7177 13.5246 19.888 14.6311 19.9326 15.7462Z" fill="#EF4444"/>
</g>
<defs>
<clipPath id="clip0_1681_5181">
<rect width="32" height="32" fill="white"/>
</clipPath>
</defs>
</svg>
